<svg width="190" height="50" viewBox="0 0 190 50" fill="none" xmlns="http://www.w3.org/2000/svg">
<path d="M0 21.3971V27.6483C0.0459182 28.0229 0.468365 28.7218 1.5153 28.7218C2.56223 28.7218 2.93876 28.0229 3.0306 27.6483V21.3971C2.9158 21.0225 2.50713 20.3187 1.5153 20.3187C0.523467 20.3187 0.0688772 21.0225 0 21.3971Z" fill="black"/>
<path d="M6.13007 21.3971V27.6483C6.17599 28.0229 6.59844 28.7218 7.64537 28.7218C8.69231 28.7218 9.06883 28.0229 9.16067 27.6483V21.3971C9.04588 21.0225 8.6372 20.3187 7.64537 20.3187C6.65354 20.3187 6.19895 21.0225 6.13007 21.3971Z" fill="black"/>
<path d="M12.2601 19.3545V29.6172C12.3061 30.1852 12.7285 30.857 13.7754 30.857C14.8224 30.857 15.1989 30.1852 15.2907 29.6172V19.3545C15.1759 18.7864 14.7673 18.1147 13.7754 18.1147C12.7836 18.1147 12.329 18.7864 12.2601 19.3545Z" fill="black"/>
<path d="M18.3213 16.9438V31.959C18.3673 32.7635 18.7897 33.5432 19.8366 33.5432C20.8836 33.5432 21.3979 32.7635 21.4897 31.959V16.9438C21.3749 16.1393 20.8285 15.4973 19.8366 15.4973C18.8448 15.4973 18.3902 16.1393 18.3213 16.9438Z" fill="black"/>
<path d="M24.4514 12.7423V36.2294C24.4973 37.4422 24.9887 38.1579 26.0356 38.1579C27.0825 38.1579 27.4591 37.4422 27.5509 36.2294V12.7423C27.4361 11.5294 27.0274 10.9514 26.0356 10.9514C25.0438 10.9514 24.5203 11.5294 24.4514 12.7423Z" fill="black"/>
<path d="M30.5815 2.54845V46.4232C30.6274 48.6094 31.1187 49.0405 32.1657 49.0405C33.2126 49.0405 33.5891 48.6094 33.681 46.4232V2.54845C33.5662 0.362257 33.1575 0 32.1657 0C31.1738 0 30.6504 0.362257 30.5815 2.54845Z" fill="black"/>
<path d="M36.7804 6.26229V42.9273C36.8264 44.7542 37.3177 45.1145 38.3646 45.1145C39.4115 45.1145 39.7881 44.7542 39.8799 42.9273V6.26229C39.7651 4.43535 39.3564 4.13263 38.3646 4.13263C37.3728 4.13263 36.8493 4.43535 36.7804 6.26229Z" fill="black"/>
<path d="M42.7728 13.4509V35.392C42.8187 36.5251 43.31 37.1937 44.3569 37.1937C45.4039 37.1937 45.7804 36.5251 45.8722 35.392V13.4509C45.7574 12.3179 45.3488 11.778 44.3569 11.778C43.3651 11.778 42.8416 12.3179 42.7728 13.4509Z" fill="black"/>
<path d="M48.9028 17.6791V31.0323C48.9487 31.7477 49.3712 32.4411 50.4181 32.4411C51.4651 32.4411 51.9793 31.7477 52.0712 31.0323V17.6791C51.9564 16.9636 51.41 16.3927 50.4181 16.3927C49.4263 16.3927 48.9717 16.9636 48.9028 17.6791Z" fill="black"/>
<path d="M55.1018 19.6385V29.402C55.1477 29.9424 55.5701 30.5814 56.6171 30.5814C57.664 30.5814 58.0405 29.9424 58.1324 29.402V19.6385C58.0176 19.0981 57.6089 18.4591 56.6171 18.4591C55.6252 18.4591 55.1707 19.0981 55.1018 19.6385Z" fill="black"/>
<path d="M61.2319 21.4208V27.6719C61.2778 28.0465 61.7002 28.7454 62.7472 28.7454C63.7941 28.7454 64.1706 28.0465 64.2625 27.6719V21.4208C64.1477 21.0462 63.739 20.3424 62.7472 20.3424C61.7553 20.3424 61.3007 21.0462 61.2319 21.4208Z" fill="black"/>
<path d="M36.7804 6.26229V42.9273C36.8264 44.7542 37.3177 45.1145 38.3646 45.1145C39.4115 45.1145 39.7881 44.7542 39.8799 42.9273V6.26229C39.7651 4.43535 39.3564 4.13263 38.3646 4.13263C37.3728 4.13263 36.8493 4.43535 36.7804 6.26229Z" fill="black"/>
<path d="M67.1806 5.384V43.2665C67.1806 44.2583 68.053 44.6899 68.4892 44.7818L74.4816 45.195C79.9229 45.6542 91.4942 44.6303 94.2493 36.8609C97.0044 29.0915 92.5963 23.9349 90.0478 22.3278C94.6213 18.3054 94.0656 12.5243 93.2162 10.1365C92.4815 8.39164 89.8274 4.58503 85.0886 3.31768C80.3499 2.05034 73.0122 2.78963 69.9357 3.31768C67.401 3.37279 67.0428 4.71819 67.1806 5.384Z" fill="black"/>
<path d="M76.5913 17.9085V10.0565C79.2316 9.68915 84.5122 9.93252 84.5122 13.8447C84.5122 17.757 79.2316 18.184 76.5913 17.9085Z" fill="#93032E"/>
<path d="M76.5913 35.9544V26.0361C79.553 25.6458 85.5178 26.0637 85.6831 30.8575C85.8484 35.6514 79.6908 36.2529 76.5913 35.9544Z" fill="#93032E"/>
<ellipse cx="114.819" cy="27.8957" rx="17.4948" ry="17.4259" fill="black"/>
<ellipse cx="114.75" cy="27.8269" rx="7.36986" ry="7.43874" fill="#93032E"/>
<path d="M100.492 22.8676C98.4529 28.5982 100.928 33.6584 102.42 35.4722C100.381 32.0007 100.561 27.3217 100.905 25.4161C101.842 19.9059 105.841 16.1865 107.724 15.0156C103.591 16.5585 101.18 20.8931 100.492 22.8676Z" fill="#93032E"/>
<path d="M103.04 23.212C100.946 27.9508 103.132 32.5334 104.487 34.2324C103.109 31.4773 103.04 28.263 103.178 27.0003C103.288 22.3166 107.035 18.5284 108.895 17.2197C105.699 18.2666 103.66 21.6508 103.04 23.212Z" fill="#93032E"/>
<path d="M106.553 32.9927C104.79 30.9539 104.578 28.1483 104.693 27.0004C104.693 22.6738 108.143 20.1166 109.964 19.3288C109.47 19.6105 108.054 20.9745 106.346 24.1764C104.638 27.3784 105.772 31.3881 106.553 32.9927Z" fill="#93032E"/>
<path d="M127.923 30.6957V16L129 17.4837V29.9185C129 32.1793 127.229 33.9221 126.344 34.5109L122.826 36.7717L123.113 37.2663L120.6 38.8207L121.533 40.163L120.959 40.4457L120.169 39.1033L119.595 39.4565L119.954 40.0924L116.938 42L115 39.0326L118.015 37.125L118.446 37.7609L121.964 35.5L122.251 35.9239C126.904 33.437 127.971 31.4022 127.923 30.6957Z" fill="#93032E"/>
<ellipse cx="114.75" cy="27.8269" rx="2.4107" ry="2.34183" fill="black"/>
<path d="M132.795 11.4339C130.591 11.5441 130.729 12.4901 131.073 12.9492L140.218 27.689L131.005 42.0154C130.013 43.4481 129.811 44.2654 129.834 44.495C129.889 45.046 130.959 45.2756 131.487 45.3215H135.344C136.226 45.3766 137.043 44.9771 137.341 44.7705C137.617 44.6052 142.048 37.6302 144.229 34.1634L150.635 44.495C151.02 45.046 151.989 45.2756 152.425 45.3215H155.663C156.544 45.3215 157.27 45.1838 157.522 45.1149C158.569 44.9496 158.556 44.1277 158.418 43.7374L148.431 27.8267C151.094 23.6022 156.641 14.8365 157.522 13.5691C158.404 12.3018 157.706 11.8013 157.247 11.7094C156.861 11.3788 153.964 11.388 152.563 11.4339C150.965 11.4339 150.198 12.1227 150.015 12.4671L144.367 21.2834L138.926 12.4671C138.76 11.8059 137.525 11.5028 136.928 11.4339H132.795Z" fill="black"/>
<path d="M160.69 12.7425V44.0128C160.69 44.674 161.701 45.1607 162.206 45.3214L170.747 45.5969C180.444 44.9908 184.568 41.2118 185.417 39.398C189.44 35.3756 189.573 27.7118 189.137 24.3828C188.255 16.944 182.479 13.1099 179.701 12.1226C176.009 10.1941 166.775 10.768 162.619 11.2961C161.241 11.2961 160.759 12.2604 160.69 12.7425Z" fill="black"/>
<path d="M168.335 38.8471V17.6329C175.223 16.9166 178.552 19.2171 179.356 20.4569C181.89 22.7161 181.56 28.7451 181.078 31.4773C179.37 38.4201 171.871 39.2833 168.335 38.8471Z" fill="#93032E"/>
</svg>
